<svg width="360" height="90" viewBox="0 0 360 90" fill="none" xmlns="http://www.w3.org/2000/svg">
<path d="M85.5 24.998L85.582 25.002L85.998 25.008C90.0671 25.1348 93.9348 26.8079 96.8135 29.6866C99.6921 32.5652 101.365 36.433 101.492 40.502L101.498 40.998L101.852 41.01C103.319 41.0962 104.704 41.7179 105.743 42.7571C106.782 43.7963 107.404 45.1809 107.49 46.6481L107.5 47.0001C107.5 48.5913 106.868 50.1175 105.743 51.2427C104.617 52.3679 103.091 53.0001 101.5 53.0001L101.498 56.392L105.164 61.892C105.354 62.1774 105.468 62.5068 105.494 62.8486C105.52 63.1905 105.457 63.5333 105.313 63.8442C105.168 64.155 104.946 64.4235 104.668 64.6238C104.39 64.8241 104.065 64.9495 103.724 64.988L103.5 65.0001H83.5C76.61 65.0041 70.846 60.0201 69.698 53.3521L69.642 52.9961L69.5 52.9981C67.9696 52.9981 66.497 52.4134 65.3835 51.3635C64.27 50.3136 63.5998 48.8778 63.51 47.3501L63.5 47.0001C63.5 45.4088 64.1321 43.8826 65.2574 42.7574C66.3826 41.6322 67.9087 41 69.5 41L69.508 40.5C69.6379 36.3452 71.3797 32.4041 74.3646 29.511C77.3495 26.6179 81.3431 25.0001 85.5 25V24.998ZM85.5 45.0001C84.4391 45.0001 83.4217 45.4215 82.6716 46.1716C81.9214 46.9218 81.5 47.9392 81.5 49.0001C81.5 49.5305 81.7107 50.0392 82.0858 50.4143C82.4609 50.7893 82.9696 51.0001 83.5 51.0001H87.5C88.0304 51.0001 88.5391 50.7893 88.9142 50.4143C89.2893 50.0392 89.5 49.5305 89.5 49.0001C89.5 47.9392 89.0786 46.9218 88.3284 46.1716C87.5783 45.4215 86.5609 45.0001 85.5 45.0001ZM81.52 37L81.266 37.014C80.7598 37.0743 80.2957 37.3255 79.9685 37.7164C79.6413 38.1073 79.4758 38.6084 79.5057 39.1173C79.5355 39.6261 79.7586 40.1044 80.1293 40.4544C80.4999 40.8043 80.9902 40.9995 81.5 41L81.754 40.986C82.2602 40.9258 82.7243 40.6746 83.0515 40.2837C83.3787 39.8928 83.5442 39.3917 83.5143 38.8828C83.4845 38.374 83.2614 37.8957 82.8907 37.5457C82.5201 37.1958 82.0298 37.0006 81.52 37ZM89.52 37L89.266 37.014C88.7598 37.0743 88.2957 37.3255 87.9685 37.7164C87.6413 38.1073 87.4758 38.6084 87.5057 39.1173C87.5355 39.6261 87.7586 40.1044 88.1293 40.4544C88.4999 40.8043 88.9902 40.9995 89.5 41L89.754 40.986C90.2602 40.9258 90.7243 40.6746 91.0515 40.2837C91.3787 39.8928 91.5442 39.3917 91.5143 38.8828C91.4845 38.374 91.2614 37.8957 90.8907 37.5457C90.5201 37.1958 90.0298 37.0006 89.52 37Z" fill="#27272A"/>
<path d="M136.78 30.6H145.78C147.727 30.6 149.447 30.9733 150.94 31.72C152.433 32.44 153.593 33.48 154.42 34.84C155.247 36.1733 155.66 37.7333 155.66 39.52C155.66 41.3333 155.247 42.92 154.42 44.28C153.593 45.6133 152.433 46.64 150.94 47.36C149.447 48.08 147.727 48.44 145.78 48.44H141.18V59H136.78V30.6ZM145.26 44.36C147.153 44.36 148.58 43.9467 149.54 43.12C150.527 42.2667 151.02 41.0667 151.02 39.52C151.02 37.9467 150.527 36.7467 149.54 35.92C148.58 35.0667 147.153 34.64 145.26 34.64H141.18V44.36H145.26ZM160.684 30.6H164.964V42.24L164.564 41.96C164.991 40.3333 165.778 39.1333 166.924 38.36C168.071 37.56 169.458 37.16 171.084 37.16C173.244 37.16 174.924 37.8933 176.124 39.36C177.324 40.8 177.924 42.76 177.924 45.24V59H173.604V46.32C173.604 44.4533 173.284 43.08 172.644 42.2C172.031 41.2933 171.071 40.84 169.764 40.84C168.298 40.84 167.124 41.3467 166.244 42.36C165.391 43.3733 164.964 44.7733 164.964 46.56V59H160.684V30.6ZM189.469 59.48C188.162 59.48 186.949 59.24 185.829 58.76C184.735 58.2533 183.869 57.5467 183.229 56.64C182.589 55.7067 182.269 54.6533 182.269 53.48C182.269 51.7467 182.815 50.36 183.909 49.32C185.002 48.28 186.629 47.5467 188.789 47.12L195.589 45.72C195.589 44.1467 195.242 42.9867 194.549 42.24C193.882 41.4667 192.869 41.08 191.509 41.08C190.255 41.08 189.269 41.36 188.549 41.92C187.829 42.4533 187.335 43.2533 187.069 44.32L182.629 44.04C183.029 41.9333 184.002 40.2667 185.549 39.04C187.122 37.7867 189.109 37.16 191.509 37.16C194.202 37.16 196.269 37.9333 197.709 39.48C199.149 41.0267 199.869 43.1867 199.869 45.96V53.92C199.869 54.4267 199.975 54.7867 200.189 55C200.402 55.2133 200.749 55.32 201.229 55.32H202.429V59C201.922 59.1067 201.295 59.16 200.549 59.16C199.002 59.16 197.842 58.7733 197.069 58C196.322 57.2 195.922 56.0133 195.869 54.44H196.469C196.255 55.9067 195.482 57.12 194.149 58.08C192.842 59.0133 191.282 59.48 189.469 59.48ZM190.029 55.8C191.175 55.8 192.162 55.6 192.989 55.2C193.842 54.7733 194.482 54.1867 194.909 53.44C195.362 52.6667 195.589 51.7467 195.589 50.68V49.12L189.869 50.28C188.775 50.4933 187.975 50.8267 187.469 51.28C186.989 51.7333 186.749 52.36 186.749 53.16C186.749 53.9867 187.029 54.64 187.589 55.12C188.175 55.5733 188.989 55.8 190.029 55.8ZM207.373 37.64H211.253L211.413 43.36L210.893 43.08C211.266 41.1067 212.053 39.6267 213.253 38.64C214.48 37.6533 215.96 37.16 217.693 37.16C219.933 37.16 221.64 37.8933 222.813 39.36C223.986 40.8267 224.573 42.7733 224.573 45.2V59H220.293V46.36C220.293 44.4933 219.986 43.1067 219.373 42.2C218.786 41.2933 217.8 40.84 216.413 40.84C215 40.84 213.853 41.3467 212.973 42.36C212.093 43.3467 211.653 44.7333 211.653 46.52V59H207.373V37.64ZM242.037 59C239.797 59 238.131 58.48 237.037 57.44C235.971 56.3733 235.437 54.76 235.437 52.6V32.24H239.717V52.4C239.717 53.3867 239.957 54.12 240.437 54.6C240.917 55.08 241.624 55.32 242.557 55.32H248.157V59H242.037ZM228.877 37.64H248.157V41.32H228.877V37.64ZM262.422 59.48C260.449 59.48 258.715 59.0267 257.222 58.12C255.729 57.2133 254.569 55.92 253.742 54.24C252.915 52.5333 252.502 50.56 252.502 48.32C252.502 46.08 252.915 44.12 253.742 42.44C254.569 40.7333 255.729 39.4267 257.222 38.52C258.715 37.6133 260.449 37.16 262.422 37.16C264.369 37.16 266.089 37.6133 267.582 38.52C269.102 39.4267 270.275 40.7333 271.102 42.44C271.929 44.12 272.342 46.08 272.342 48.32C272.342 50.56 271.929 52.5333 271.102 54.24C270.275 55.92 269.102 57.2133 267.582 58.12C266.089 59.0267 264.369 59.48 262.422 59.48ZM262.422 55.56C264.129 55.56 265.449 54.92 266.382 53.64C267.342 52.3333 267.822 50.56 267.822 48.32C267.822 46.08 267.342 44.32 266.382 43.04C265.449 41.7333 264.129 41.08 262.422 41.08C260.715 41.08 259.382 41.72 258.422 43C257.489 44.28 257.022 46.0533 257.022 48.32C257.022 50.5867 257.489 52.36 258.422 53.64C259.382 54.92 260.715 55.56 262.422 55.56ZM275.086 37.64H278.846L279.006 42.4L278.486 42.28C278.78 40.68 279.34 39.4267 280.166 38.52C281.02 37.6133 282.046 37.16 283.246 37.16C284.473 37.16 285.42 37.6 286.086 38.48C286.78 39.36 287.233 40.6933 287.446 42.48H286.926C287.193 40.8 287.74 39.4933 288.566 38.56C289.393 37.6267 290.446 37.16 291.726 37.16C293.406 37.16 294.62 37.7733 295.366 39C296.14 40.2 296.526 42.1333 296.526 44.8V59H292.286V45.36C292.286 43.7067 292.126 42.5467 291.806 41.88C291.486 41.1867 290.98 40.84 290.286 40.84C289.78 40.84 289.353 41.0133 289.006 41.36C288.66 41.68 288.393 42.1733 288.206 42.84C288.02 43.5067 287.926 44.36 287.926 45.4V59H283.686V45.36C283.686 43.7333 283.526 42.5733 283.206 41.88C282.913 41.1867 282.406 40.84 281.686 40.84C281.18 40.84 280.753 41.0133 280.406 41.36C280.06 41.68 279.793 42.1733 279.606 42.84C279.42 43.5067 279.326 44.36 279.326 45.4V59H275.086V37.64Z" fill="#27272A"/>
</svg>
