<svg width="64" height="64" viewBox="0 0 64 64" fill="none" xmlns="http://www.w3.org/2000/svg">
<path d="M32 11.998L32.082 12.002L32.498 12.008C36.5671 12.1348 40.4348 13.8079 43.3135 16.6866C46.1921 19.5652 47.8652 23.433 47.992 27.502L47.998 27.998L48.352 28.01C49.8192 28.0962 51.2037 28.7179 52.243 29.7571C53.2822 30.7963 53.9039 32.1809 53.99 33.6481L54 34.0001C54 35.5913 53.3679 37.1175 52.2426 38.2427C51.1174 39.3679 49.5913 40.0001 48 40.0001L47.998 43.392L51.664 48.892C51.854 49.1774 51.9675 49.5068 51.9936 49.8486C52.0197 50.1905 51.9574 50.5333 51.8128 50.8442C51.6683 51.155 51.4462 51.4235 51.168 51.6238C50.8897 51.8241 50.5647 51.9495 50.224 51.988L50 52.0001H30C23.11 52.0041 17.346 47.0201 16.198 40.3521L16.142 39.9961L16 39.9981C14.4696 39.9981 12.997 39.4134 11.8835 38.3635C10.77 37.3136 10.0998 35.8778 10.01 34.3501L10 34.0001C10 32.4088 10.6321 30.8826 11.7574 29.7574C12.8826 28.6322 14.4087 28 16 28L16.008 27.5C16.1379 23.3452 17.8797 19.4041 20.8646 16.511C23.8495 13.6179 27.8431 12.0001 32 12V11.998ZM32 32.0001C30.9391 32.0001 29.9217 32.4215 29.1716 33.1716C28.4214 33.9218 28 34.9392 28 36.0001C28 36.5305 28.2107 37.0392 28.5858 37.4143C28.9609 37.7893 29.4696 38.0001 30 38.0001H34C34.5304 38.0001 35.0391 37.7893 35.4142 37.4143C35.7893 37.0392 36 36.5305 36 36.0001C36 34.9392 35.5786 33.9218 34.8284 33.1716C34.0783 32.4215 33.0609 32.0001 32 32.0001ZM28.02 24L27.766 24.014C27.2598 24.0743 26.7957 24.3255 26.4685 24.7164C26.1413 25.1073 25.9758 25.6084 26.0057 26.1173C26.0355 26.6261 26.2586 27.1044 26.6293 27.4544C26.9999 27.8043 27.4902 27.9995 28 28L28.254 27.986C28.7602 27.9258 29.2243 27.6746 29.5515 27.2837C29.8787 26.8928 30.0442 26.3917 30.0143 25.8828C29.9845 25.374 29.7614 24.8957 29.3907 24.5457C29.0201 24.1958 28.5298 24.0006 28.02 24ZM36.02 24L35.766 24.014C35.2598 24.0743 34.7957 24.3255 34.4685 24.7164C34.1413 25.1073 33.9758 25.6084 34.0057 26.1173C34.0355 26.6261 34.2586 27.1044 34.6293 27.4544C34.9999 27.8043 35.4902 27.9995 36 28L36.254 27.986C36.7602 27.9258 37.2243 27.6746 37.5515 27.2837C37.8787 26.8928 38.0442 26.3917 38.0143 25.8828C37.9845 25.374 37.7614 24.8957 37.3907 24.5457C37.0201 24.1958 36.5298 24.0006 36.02 24Z" fill="#F4F4F5"/>
</svg>
